<?xml version="1.0" encoding="UTF-8" standalone="no"?>
<!DOCTYPE svg PUBLIC "-//W3C//DTD SVG 1.1//EN" "http://www.w3.org/Graphics/SVG/1.1/DTD/svg11.dtd">
<svg width="100%" height="100%" viewBox="0 0 2049 538" version="1.1" xmlns="http://www.w3.org/2000/svg" xmlns:xlink="http://www.w3.org/1999/xlink" xml:space="preserve" xmlns:serif="http://www.serif.com/" style="fill-rule:evenodd;clip-rule:evenodd;stroke-linejoin:round;stroke-miterlimit:2;">
    <g transform="matrix(0.24,0,0,0.24,0,0)">
        <g id="Logo" transform="matrix(1,0,0,1,0,1039.04)">
            <rect x="0" y="0" width="1200" height="1200" style="fill:none;"/>
            <g id="Sketches">
            </g>
            <g id="Logo1" serif:id="Logo">
                <g>
                    <path d="M504.354,268.774C506.595,267.935 504.569,261.921 502.241,261.809C493.638,261.394 485.937,262.679 456.815,244.393C427.693,226.107 419.23,196.967 385.368,172.68C353.898,150.11 330.495,150.301 323.493,157.279C309.215,171.508 291.878,244.906 318.829,302.587C325.965,317.86 344.807,328.544 358.412,335.652C359.276,336.106 359.85,336.968 359.937,337.94C360.024,338.912 359.611,339.862 358.842,340.463C339.276,356.66 285.31,408.795 279.336,430.874C272.956,454.454 290.448,512.46 248.821,582.036C210.223,646.548 170.94,658.217 146.494,669.625C128.641,677.956 129.577,682.411 138.571,709.345C146.346,732.63 181.78,768.551 207.967,801.073C234.84,834.448 235.867,836.01 244.48,846.124C248.178,850.466 256.685,853.216 269.299,852.327C284.585,851.25 380.717,830.819 451.863,827.448C488.752,825.7 505.657,845.499 504.916,862.296C504.182,878.935 494.285,884.496 479.191,886.924C478.507,887.034 477.806,886.893 477.217,886.527C457.222,874.099 445.111,860.306 416.754,860.302C390.429,860.299 372.109,873.882 358.46,891.929C357.757,892.864 357.691,894.132 358.293,895.135C358.895,896.138 360.045,896.676 361.201,896.495C394.551,891.59 424.317,910.319 432.854,928.771C433.304,929.898 432.979,931.188 432.047,931.966C431.116,932.745 429.79,932.838 428.76,932.195C405.046,917.377 389.251,912.341 355.521,919.46C322.755,926.376 309.629,953.941 307.253,971.334C304.898,988.58 291.719,995.191 277.294,996.578C259.401,998.298 253.73,986.175 250.147,976.453C249.791,975.503 248.96,974.811 247.962,974.632C246.964,974.453 245.945,974.813 245.281,975.579C237.797,984.626 234.035,1017.99 254.547,1036.8C268.077,1049.21 289.992,1045.24 300.125,1045.36C300.97,1045.38 301.761,1045.78 302.287,1046.44C307.313,1053.7 310.825,1075.7 330.278,1075.08C347.63,1074.53 354.491,1057.08 354.689,1038.19C354.774,1030.09 359.999,1017.31 379.1,1019.6C402.374,1022.4 410.994,1037.1 413.775,1074.25C415.585,1098.41 416.68,1103.04 423.656,1114.08C427.925,1120.83 443.963,1135.49 463.648,1140.31C502.7,1149.87 552.132,1157.42 578.781,1154.6C603.549,1151.98 619.351,1123.43 631.773,1105.79C644.157,1088.2 659.23,1083.26 670.003,1089.86C684.454,1098.72 666.275,1133.26 643.466,1149.6C642.389,1150.33 641.947,1151.7 642.392,1152.92C642.837,1154.14 644.056,1154.91 645.35,1154.78C669.759,1152.36 693.609,1149.53 698.922,1143.23C716.051,1122.91 706.326,1117.94 714.04,1099.96C721.337,1082.94 733.528,1071.66 754.333,1065.42C775.138,1059.18 780.434,1060.33 786.442,1046.63C791.196,1035.78 780.478,1027.56 781.449,1016.6C782.385,1006.03 789.493,1001.27 801.768,1003.49C812.033,1005.35 831.472,1032.51 826.873,1042.47C820.809,1055.59 814.092,1050.41 799.618,1058.21C783.791,1066.73 760.877,1092.73 767.013,1124.8C767.229,1125.88 768.051,1126.75 769.124,1127.01C770.196,1127.28 771.326,1126.9 772.025,1126.05C789.578,1104.5 799.03,1094.44 824.03,1086.64C848.008,1079.16 862.263,1087.07 884.78,1077.77C903.341,1070.09 945.254,1036.92 951.495,1016.46C957.737,996.001 938.183,978.983 944.078,953.324C949.973,927.664 990.67,878.806 1021.01,864.178C1051.35,849.549 1063.9,850.218 1085.57,835.589C1107.24,820.961 1146.97,744.818 1146.97,680.017C1146.97,652.188 1143.26,629.015 1136.62,612.323C1136.23,611.349 1136.39,610.238 1137.06,609.424C1141.42,603.951 1148.73,593.111 1149.26,579.53C1149.96,561.477 1146.54,550.668 1140.79,544.484C1139.93,543.581 1139.75,542.222 1140.35,541.126C1145.57,531.002 1148.68,514.977 1147.01,499.418C1143.77,469.151 1117.81,451.368 1106.71,428.067C1096.83,407.316 1092.89,374.687 1094.69,357.8C1094.9,356.707 1094.45,355.594 1093.55,354.944C1092.65,354.294 1091.45,354.226 1090.48,354.77C1077.24,363.009 1062.95,385.596 1060.74,405.71C1058.95,422.011 1061.58,436.604 1064.03,445.402C1064.43,446.58 1064.02,447.881 1063.02,448.618C1062.02,449.355 1060.65,449.358 1059.65,448.626C1056.53,446.382 1054.28,444.723 1047.7,444.546C1036.72,444.249 1032.17,457.029 1031.06,466.183C1029.95,475.337 1034.39,510.567 1026.9,537.198C1019.41,563.828 1001.1,591.013 973.084,582.136C945.067,573.26 941.926,535.056 948.192,518.573C957.485,494.127 974.005,483.679 994.664,464.314C1024.1,436.726 1037.3,427.631 1042.5,388.677C1048.14,346.492 1018.26,322.669 989.897,278.233C989.196,277.125 987.836,276.63 986.588,277.03C985.339,277.43 984.519,278.623 984.593,279.931C986.648,315.779 990.95,323.376 971.436,350.416C958.023,369.003 940.682,363.818 921.726,386.391C912.738,397.094 907.487,405.408 904.705,414.413C904.31,415.775 902.964,416.63 901.563,416.408C900.163,416.187 899.146,414.958 899.191,413.541C899.511,400.815 904.998,387.231 916.633,375.013C941.152,349.269 945.561,344.901 955.751,322.459C966.541,298.698 967.947,240.876 958.785,219.734C947.44,193.555 927.174,160.77 892.056,145.007C891.005,144.546 889.782,144.756 888.945,145.541C888.109,146.326 887.821,147.534 888.214,148.612C894.598,167.072 883.285,209.331 859.556,212.46C833.377,215.913 805.3,200.943 794.757,169.794C784.668,139.987 801.213,111.198 816.202,95.293C817.076,94.39 817.261,93.024 816.659,91.921C816.056,90.819 814.807,90.236 813.575,90.484C792.827,95.923 765.07,122.797 756.907,153.838C746.369,193.913 756.023,214.294 766.963,231.163C775.269,243.971 787.587,250.227 787.891,277.513C787.94,278.894 786.996,280.112 785.647,280.408C784.297,280.703 782.93,279.992 782.397,278.718C779.623,272.286 775.461,266.131 769.357,258.313C758.572,244.501 741.964,231.766 737.109,217.896C732.952,206.018 731.084,186.512 733.681,172.879C733.977,171.746 733.549,170.548 732.604,169.858C731.658,169.169 730.386,169.128 729.398,169.757C719.383,176.293 708.559,189.885 706.533,214.575C706.45,215.589 705.837,216.484 704.921,216.927C704.005,217.37 702.923,217.295 702.077,216.73C690.09,206.756 675.187,182.499 668.106,167.964C654.929,140.917 655.334,110.925 652.241,103.305C651.212,100.771 643.212,90.337 621.71,90.931C585.394,91.935 512.306,155.207 501.104,222.418C496.079,252.567 539.904,314.446 581.529,325.414C582.715,325.676 583.937,325.155 584.57,324.117C585.202,323.08 585.106,321.755 584.33,320.82C549.023,278.109 534.202,233.77 537.512,199.012C540.825,164.233 565.253,148.734 590.392,149.6C615.531,150.467 639.37,173.439 639.37,202.046C639.37,230.653 631.213,247.997 624.918,256.944C620.412,263.347 621.219,268.718 623.781,272.547C626.493,276.6 634.324,284.777 644.551,290.334C645.62,290.879 646.917,290.69 647.785,289.862C648.654,289.035 648.905,287.749 648.412,286.655C647.29,284.049 646.603,280.877 646.603,276.979C646.603,270.182 651.29,255.249 667.908,256.385C684.525,257.521 712.051,287.183 700.87,327.434C692.981,355.833 680.772,361.783 666.683,371.027C665.881,371.556 665.395,372.45 665.388,373.412C665.397,405.884 682.246,469.306 713.093,491.625C718.455,495.504 722.867,495.713 730.911,497.655C746.677,501.46 767.528,506.254 774.741,512.08C781.39,517.451 790.634,549.702 791.818,566.442C791.857,567.35 791.463,568.223 790.757,568.796C790.051,569.368 789.115,569.572 788.235,569.346C774.281,565.881 746.093,561.358 725.884,573.832C725.014,574.39 724.513,575.376 724.576,576.408C724.638,577.44 725.254,578.358 726.186,578.807C746.79,589.506 767.982,612.497 774.463,623.872C778.626,631.179 770.466,687.52 757.29,709.568C756.66,710.479 755.558,710.941 754.467,710.754C753.375,710.566 752.491,709.764 752.199,708.695C737.604,655.548 699.152,639.101 675.336,638.087C674.156,638.074 673.091,638.788 672.653,639.883C672.216,640.979 672.498,642.23 673.362,643.033C694.695,664.374 712.448,713.073 711.424,723.121C709.518,741.824 680.32,770.835 665.573,780.707C664.659,781.25 663.519,781.243 662.612,780.687C661.706,780.131 661.182,779.118 661.252,778.057C663.142,742.741 646.016,698.476 602.751,684.123C601.851,683.831 600.865,684.001 600.115,684.578C599.366,685.154 598.949,686.064 599.001,687.008C602.642,753.314 575.058,777.615 532.062,802.81C531.172,803.331 530.071,803.336 529.176,802.823C528.282,802.31 527.73,801.357 527.73,800.326C527.79,791.113 526.077,784.579 520.959,780.116C512.408,772.659 497.033,771.447 478.309,775.261C459.584,779.076 402.504,818.288 337.376,826.104C302.701,830.265 276.74,829.02 254.201,816.884C232.221,805.048 195.73,762.543 188.468,729.248C188.163,727.761 189.068,726.294 190.533,725.898C202.54,722.574 208.325,728.095 213.749,737.204C214.274,738.067 215.213,738.592 216.223,738.585C217.234,738.579 218.166,738.042 218.679,737.172C225.193,725.078 231.469,700.776 228.195,695.521C217.381,678.166 205.896,673.754 189.892,673.168C188.95,673.127 188.089,672.627 187.586,671.829C187.084,671.032 187.004,670.039 187.374,669.172C201.899,659.206 247.701,632.344 280.039,585.585C294.832,564.195 316.046,518.102 309.145,454.296C307.611,440.115 307.258,432.905 312.959,423.154C338.185,380.005 429.784,296.675 504.354,268.774Z"/>
                    <g transform="matrix(0.994714,0.102686,-0.102686,0.994714,31.76,-101.608)">
                        <path d="M1039.94,307.767C1039.71,308.929 1038.8,309.834 1037.64,310.049C1036.47,310.264 1035.3,309.744 1034.67,308.74C1024.96,292.718 1019.08,285.834 1009.63,276.303C996.077,262.615 989.536,257.792 980.152,248.209C967.294,235.078 963.32,219.901 966.368,206.581C966.632,205.447 967.559,204.587 968.71,204.409C969.86,204.231 971.004,204.77 971.599,205.771C976.509,214.139 983.182,219.17 994.395,224.262C1010.66,231.646 1019.58,233.731 1029.88,248.218C1045.74,270.535 1042.83,293.34 1039.94,307.767Z"/>
                    </g>
                    <g transform="matrix(-0.736997,0.185338,0.174961,0.695732,1677.12,588.071)">
                        <path d="M1040.41,305.315C1040.12,306.921 1038.94,308.181 1037.43,308.5C1035.92,308.818 1034.37,308.131 1033.53,306.763C1025.4,293.205 1021.99,289.882 1010.26,285.588C994.182,279.7 977.457,272.777 962.592,253.705C951.791,239.846 950.181,225.649 950.787,212.26C950.847,210.767 951.685,209.434 952.962,208.8C954.239,208.166 955.742,208.337 956.863,209.243C966.12,216.406 983.535,219.33 994.395,224.262C1010.66,231.646 1019.58,233.731 1029.88,248.218C1044.86,269.309 1043.1,290.836 1040.41,305.315Z"/>
                    </g>
                    <g transform="matrix(-0.392227,0.426483,0.382697,0.351958,506.582,436.898)">
                        <path d="M1035.07,311.3C1034.47,313.353 1032.85,314.829 1030.93,315.075C1029,315.321 1027.12,314.293 1026.12,312.444C1017.84,296.664 1007.92,288.319 999.109,279.421C985.551,265.733 980.202,268.121 970.818,258.537C957.889,245.333 950.998,211.868 953.295,193.273C953.61,191.471 954.718,189.967 956.243,189.271C957.767,188.575 959.504,188.782 960.862,189.82C971.486,197.586 985.832,206.132 997.649,210.165C1010.3,214.484 1020.68,225.817 1028.12,239.953C1041.19,264.766 1041.55,289.106 1035.07,311.3Z"/>
                    </g>
                    <path d="M367.544,515.171C366.576,515.184 365.681,515.686 365.165,516.505C364.649,517.323 364.583,518.348 364.989,519.226C366.972,523.13 369.85,526.838 372.301,529.038C372.931,529.563 373.755,529.793 374.566,529.67C376.25,529.436 377.502,529.191 378.704,528.893C379.444,528.705 380.228,528.819 380.884,529.21C381.54,529.601 382.013,530.237 382.2,530.978C384.339,537.678 392.625,548.259 395.645,548.598C398.462,548.914 418.869,542.845 432.773,521.762C437.188,515.067 440.106,513.715 444.138,513.168C444.622,513.103 445.082,512.915 445.473,512.622C447.703,511.021 448.944,509.74 449.821,508.603C450.301,507.895 450.439,507.01 450.195,506.19C449.951,505.37 449.352,504.704 448.563,504.374C441.064,501.424 426.57,497.087 407.639,497.91C401.932,498.159 387.882,509.472 379.139,513.368C377.418,514.135 372.948,515.108 367.544,515.171Z"/>
                </g>
            </g>
        </g>
        <g id="Horizontal-Text" serif:id="Horizontal Text" transform="matrix(1,0,0,1,-0.333333,1039.04)">
            <rect x="1408.33" y="0" width="1200" height="1200" style="fill:none;"/>
            <g id="Text" transform="matrix(1,0,0,1,0.333333,0)">
                <g>
                    <g transform="matrix(1,0,0,1,-18.4126,-8.73144)">
                        <path d="M1489.78,382.205C1489.78,373.962 1496.47,367.27 1504.71,367.27C1512.96,367.27 1519.65,373.962 1519.65,382.205L1519.65,539.403L1601.1,620.856L1601.1,431.305C1601.1,423.062 1607.79,416.37 1616.04,416.37C1624.28,416.37 1630.97,423.062 1630.97,431.305L1630.97,656.912C1630.97,662.952 1627.33,668.398 1621.75,670.71C1616.17,673.021 1609.75,671.743 1605.48,667.472L1494.15,556.15C1491.35,553.349 1489.78,549.551 1489.78,545.59L1489.78,382.205Z"/>
                    </g>
                    <g transform="matrix(1,0,0,1,-10.5819,-16.5621)">
                        <path d="M1712.87,513.253L1676.26,553.867L1676.26,649.716C1676.26,657.959 1669.57,664.651 1661.33,664.651C1653.08,664.651 1646.39,657.959 1646.39,649.716L1646.39,366.755C1646.39,361.849 1648.8,357.255 1652.84,354.467C1656.88,351.678 1662.02,351.05 1666.61,352.787L1788.52,398.924C1793.13,400.67 1796.58,404.582 1797.75,409.376C1798.91,414.169 1797.63,419.228 1794.32,422.892L1733.64,490.214L1790.88,580.672C1795.29,587.637 1793.21,596.87 1786.25,601.278C1779.28,605.686 1770.05,603.61 1765.64,596.644L1712.87,513.253ZM1676.26,509.255L1757.51,419.125L1676.26,388.376L1676.26,509.255Z"/>
                    </g>
                    <g transform="matrix(1,0,0,1,80.4227,112.114)">
                        <path d="M1805.72,239.617C1811.06,233.339 1820.49,232.579 1826.77,237.921C1833.05,243.263 1833.81,252.696 1828.47,258.974L1719.75,386.731L1769.1,461.596C1773.31,467.976 1772.02,476.503 1766.11,481.354L1670.81,559.668C1664.44,564.901 1655.02,563.979 1649.79,557.611C1644.55,551.242 1645.48,541.823 1651.84,536.59L1736.77,466.811L1688.64,393.81C1684.99,388.264 1685.43,380.971 1689.74,375.912L1805.72,239.617Z"/>
                    </g>
                    <g transform="matrix(1,0,0,1,9.09025,-14.0224)">
                        <path d="M2063.74,557.484C2063.74,549.241 2070.43,542.549 2078.68,542.549C2086.92,542.549 2093.61,549.241 2093.61,557.484L2093.61,643.887L2161.94,598.53L2161.94,413.527C2161.94,405.284 2168.64,398.592 2176.88,398.592C2185.12,398.592 2191.81,405.284 2191.81,413.527L2191.81,606.542C2191.81,611.546 2189.31,616.217 2185.14,618.985L2086.94,684.169C2082.35,687.212 2076.47,687.488 2071.62,684.887C2066.77,682.286 2063.74,677.229 2063.74,671.726L2063.74,557.484Z"/>
                    </g>
                    <g transform="matrix(1.15253,0,0,1.15842,-317.842,-85.963)">
                        <path d="M2289.21,577.45L2229.92,487.441L2229.92,660.966C2229.92,668.082 2224.12,673.858 2216.96,673.858C2209.81,673.858 2204.01,668.082 2204.01,660.966L2204.01,444.248C2204.01,438.548 2207.77,433.524 2213.26,431.894C2218.75,430.264 2224.66,432.414 2227.8,437.181L2289.21,530.408L2289.21,438.077C2289.21,430.962 2295.02,425.185 2302.17,425.185C2309.32,425.185 2315.13,430.962 2315.13,438.077L2315.13,635.325C2315.13,642.44 2309.32,648.217 2302.17,648.217C2295.02,648.217 2289.21,642.44 2289.21,635.325L2289.21,577.45Z"/>
                    </g>
                    <g transform="matrix(1,0,0,1,39.8618,-19.176)">
                        <path d="M2363.66,484.765L2363.66,660.721C2363.66,668.964 2356.97,675.656 2348.73,675.656C2340.49,675.656 2333.79,668.964 2333.79,660.721L2333.79,392.363C2333.79,384.12 2340.49,377.428 2348.73,377.428C2356.97,377.428 2363.66,384.12 2363.66,392.363L2363.66,436.717L2421.69,363.608C2426.81,357.152 2436.21,356.07 2442.67,361.194C2449.12,366.318 2450.21,375.72 2445.08,382.177L2392.84,447.999L2514.92,661.781C2519.01,668.938 2516.52,678.068 2509.36,682.156C2502.2,686.243 2493.07,683.751 2488.99,676.593L2372.84,473.204L2363.66,484.765Z"/>
                    </g>
                    <g transform="matrix(1,0,0,1,179.681,-31.8001)">
                        <path d="M1700.11,534.068L1680.06,556.411C1674.55,562.546 1665.1,563.057 1658.97,557.551C1652.84,552.046 1652.32,542.595 1657.83,536.461L1687.35,503.567C1687.43,503.481 1687.5,503.396 1687.58,503.31L1785.47,394.24C1789.6,389.635 1796.15,388.055 1801.92,390.268C1807.7,392.481 1811.52,398.027 1811.52,404.215L1811.52,702.363C1811.52,710.605 1804.83,717.297 1796.58,717.297C1788.34,717.297 1781.65,710.605 1781.65,702.363L1781.65,601.468L1700.11,534.068ZM1781.65,562.715L1781.65,443.216L1720.08,511.82L1781.65,562.715Z"/>
                    </g>
                    <g transform="matrix(1,0,0,1,368.061,-30.3186)">
                        <path d="M1676.26,561.505L1676.26,674.266C1676.26,682.509 1669.57,689.201 1661.33,689.201C1653.08,689.201 1646.39,682.509 1646.39,674.266L1646.39,380.511C1646.39,374.547 1649.94,369.154 1655.42,366.795C1660.9,364.435 1667.25,365.562 1671.59,369.66L1779.07,471.296C1782.38,474.424 1784.08,478.89 1783.69,483.426C1783.3,487.962 1780.86,492.072 1777.07,494.59L1676.26,561.505ZM1676.26,525.653L1744.9,480.093L1676.26,415.188L1676.26,525.653Z"/>
                    </g>
                    <g transform="matrix(1,0,0,1,16.9916,-5.60234)">
                        <path d="M1898.31,730.618C1899.86,734.945 1897.62,739.724 1893.29,741.281C1888.96,742.839 1884.18,740.591 1882.62,736.263L1875.51,716.512L1822.21,783.959L1849.96,825.341L1870.83,788.978L1855.78,797.005C1851.73,799.169 1846.67,797.632 1844.51,793.573C1842.35,789.515 1843.88,784.463 1847.94,782.299L1888.58,760.627C1891.85,758.879 1895.89,759.512 1898.48,762.18C1901.07,764.848 1901.57,768.906 1899.72,772.129L1857.74,845.271C1856.3,847.77 1853.68,849.35 1850.8,849.451C1847.92,849.551 1845.19,848.157 1843.59,845.764L1804.98,788.198C1802.97,785.192 1803.12,781.229 1805.37,778.39L1871.74,694.411C1873.61,692.037 1876.63,690.867 1879.62,691.354C1882.6,691.841 1885.09,693.909 1886.12,696.756L1898.31,730.618Z"/>
                    </g>
                    <g transform="matrix(1,0,0,1,58.9806,-25.2424)">
                        <path d="M1872.44,819.662L1857.74,845.271C1855.45,849.26 1850.35,850.639 1846.36,848.35C1842.37,846.06 1840.99,840.962 1843.28,836.974L1894.37,747.98C1896.04,745.077 1899.28,743.453 1902.6,743.857C1905.92,744.26 1908.68,746.612 1909.61,749.83L1944.9,872.75C1946.16,877.171 1943.61,881.79 1939.19,883.059C1934.77,884.329 1930.15,881.77 1928.88,877.349L1917.36,837.224L1872.44,819.662ZM1911.57,817.066L1899.02,773.355L1880.83,805.047L1911.57,817.066Z"/>
                    </g>
                    <g transform="matrix(1,0,0,1,77.2569,-55.7563)">
                        <path d="M1987.6,906.22C1987.24,910.805 1983.22,914.233 1978.63,913.871C1974.05,913.509 1970.62,909.492 1970.98,904.907L1978.15,814.118L1963.01,837C1961.64,839.056 1959.44,840.404 1956.99,840.68C1954.54,840.957 1952.09,840.133 1950.31,838.432L1929.29,818.406L1944.9,872.75C1946.16,877.171 1943.61,881.79 1939.19,883.059C1934.77,884.329 1930.15,881.77 1928.88,877.349L1904.8,793.482C1903.76,789.866 1905.27,786.003 1908.49,784.054C1911.71,782.106 1915.84,782.555 1918.56,785.15L1954.6,819.502L1982.05,778.043C1984.15,774.875 1988.12,773.527 1991.72,774.764C1995.31,776.002 1997.61,779.512 1997.31,783.299L1987.6,906.22Z"/>
                    </g>
                    <g transform="matrix(1,0,0,1,105.242,-75.8677)">
                        <path d="M1990.82,865.441L1988.76,891.586L2024.07,874.119C2028.2,872.08 2033.2,873.771 2035.24,877.894C2037.28,882.017 2035.59,887.019 2031.46,889.058L1982.99,913.033C1980.3,914.363 1977.1,914.145 1974.62,912.464C1972.14,910.783 1970.75,907.897 1970.98,904.907L1978.22,813.328C1978.5,809.699 1981.11,806.677 1984.66,805.862L2033.53,794.633C2038.01,793.603 2042.49,796.406 2043.52,800.889C2044.55,805.371 2041.75,809.846 2037.26,810.876L1994.35,820.736L1992.32,846.406L2013.88,836.493C2018.06,834.572 2023.02,836.405 2024.94,840.583C2026.86,844.762 2025.03,849.715 2020.85,851.636L1990.82,865.441Z"/>
                    </g>
                    <g transform="matrix(1,0,0,1,25.3135,-5.60234)">
                        <path d="M2154.74,702.777C2157.2,698.887 2162.35,697.721 2166.24,700.176C2170.13,702.63 2171.29,707.78 2168.84,711.67L2136.31,763.224L2164.16,782.832C2166.07,784.175 2167.32,786.256 2167.63,788.568C2167.93,790.881 2167.25,793.214 2165.75,795.001L2114.08,856.604C2111.13,860.128 2105.87,860.589 2102.34,857.634C2098.82,854.678 2098.36,849.417 2101.31,845.894L2147.15,791.24L2120.24,772.291C2116.61,769.736 2115.62,764.784 2117.99,761.03L2154.74,702.777Z"/>
                    </g>
                    <g transform="matrix(1,0,0,1,-5.91528,36.7254)">
                        <path d="M1474.24,749.899C1469.64,749.899 1465.9,746.165 1465.9,741.566C1465.9,736.967 1469.64,733.233 1474.24,733.233L1806.98,733.233C1811.57,733.233 1815.31,736.967 1815.31,741.566C1815.31,746.165 1811.57,749.899 1806.98,749.899L1474.24,749.899Z"/>
                    </g>
                    <g transform="matrix(1,0,0,1,-5.91528,36.7254)">
                        <path d="M2220.86,749.899C2216.26,749.899 2212.52,746.165 2212.52,741.566C2212.52,736.967 2216.26,733.233 2220.86,733.233L2553.59,733.233C2558.19,733.233 2561.93,736.967 2561.93,741.566C2561.93,746.165 2558.19,749.899 2553.59,749.899L2220.86,749.899Z"/>
                    </g>
                </g>
            </g>
            <g id="Text1" serif:id="Text">
            </g>
        </g>
        <g id="Vertical-Text" serif:id="Vertical Text" transform="matrix(1,0,0,1,-0.333333,1039.04)">
            <rect x="2816.33" y="0" width="1200" height="1200" style="fill:none;"/>
            <g transform="matrix(1,0,0,1,1666.64,-126.149)">
                <path d="M1722.09,542.831L1685.48,583.445L1685.48,679.294C1685.48,687.537 1678.79,694.229 1670.54,694.229C1662.3,694.229 1655.61,687.537 1655.61,679.294L1655.61,396.333C1655.61,391.427 1658.02,386.833 1662.06,384.045C1666.09,381.256 1671.24,380.628 1675.83,382.365L1797.73,428.502C1802.35,430.248 1805.8,434.16 1806.96,438.954C1808.12,443.748 1806.84,448.806 1803.54,452.47L1742.86,519.792L1801.38,612.267C1805.78,619.232 1803.71,628.466 1796.74,632.873C1789.78,637.281 1780.54,635.205 1776.14,628.24L1722.09,542.831ZM1685.48,538.833L1766.72,448.703L1685.48,417.954L1685.48,538.833ZM1898.21,541.95L1878.15,564.294C1872.65,570.428 1863.2,570.939 1857.06,565.433C1850.93,559.928 1850.42,550.477 1855.92,544.343L1983.56,402.122C1987.7,397.517 1994.24,395.937 2000.02,398.15C2005.8,400.363 2009.61,405.909 2009.61,412.097L2009.61,739.745C2009.61,747.987 2002.92,754.68 1994.68,754.68C1986.43,754.68 1979.74,747.987 1979.74,739.745L1979.74,609.35L1898.21,541.95ZM1979.74,570.597L1979.74,451.098L1918.17,519.702L1979.74,570.597ZM1803.88,846.93L1735.55,742.662L1735.55,910.628C1735.55,918.87 1728.85,925.562 1720.61,925.562C1712.37,925.562 1705.67,918.87 1705.67,910.628L1705.67,692.626C1705.67,686.023 1710.01,680.204 1716.34,678.315C1722.67,676.427 1729.48,678.917 1733.1,684.44L1803.88,792.436L1803.88,718.426C1803.88,710.183 1810.57,703.491 1818.81,703.491C1827.05,703.491 1833.75,710.183 1833.75,718.426L1833.75,880.382C1833.75,888.625 1827.05,895.317 1818.81,895.317C1810.57,895.317 1803.88,888.625 1803.88,880.382L1803.88,846.93ZM1884,777.879L1884,911.229C1884,919.472 1877.31,926.164 1869.06,926.164C1860.82,926.164 1854.13,919.472 1854.13,911.229L1854.13,686.358C1854.13,678.115 1860.82,671.423 1869.06,671.423C1877.31,671.423 1884,678.115 1884,686.358L1884,729.831L1942.02,656.723C1947.14,650.266 1956.55,649.185 1963,654.309C1969.46,659.433 1970.54,668.835 1965.42,675.291L1913.18,741.114L1999.86,892.91C2003.95,900.068 2001.46,909.198 1994.3,913.286C1987.14,917.373 1978.01,914.88 1973.92,907.723L1893.17,766.318L1884,777.879ZM1687.98,1025.97L1676.32,1046.28C1674.32,1049.77 1669.86,1050.97 1666.37,1048.97C1662.88,1046.97 1661.67,1042.51 1663.67,1039.02L1705.01,967.017C1706.46,964.477 1709.3,963.056 1712.21,963.408C1715.12,963.761 1717.53,965.82 1718.34,968.635L1746.89,1068.08C1748,1071.95 1745.76,1075.99 1741.89,1077.1C1738.02,1078.21 1733.98,1075.97 1732.87,1072.11L1723.63,1039.9L1687.98,1025.97ZM1718.56,1022.27L1709.08,989.219L1695.32,1013.18L1718.56,1022.27ZM1821.46,1021.73L1819.89,1041.59L1847.6,1027.89C1851.21,1026.11 1855.59,1027.59 1857.37,1031.19C1859.15,1034.8 1857.67,1039.18 1854.07,1040.96L1814.85,1060.36C1812.49,1061.52 1809.7,1061.33 1807.53,1059.86C1805.35,1058.39 1804.14,1055.87 1804.35,1053.25L1810.2,979.158C1810.45,975.983 1812.73,973.338 1815.83,972.625L1855.37,963.541C1859.3,962.639 1863.21,965.092 1864.11,969.014C1865.01,972.936 1862.56,976.852 1858.64,977.753L1824.31,985.64L1822.78,1005.07L1839.37,997.443C1843.03,995.762 1847.36,997.366 1849.04,1001.02C1850.72,1004.68 1849.12,1009.01 1845.46,1010.69L1821.46,1021.73ZM1489.78,382.205C1489.78,373.962 1496.47,367.27 1504.71,367.27C1512.96,367.27 1519.65,373.962 1519.65,382.205L1519.65,539.403L1601.1,620.856L1601.1,431.305C1601.1,423.062 1607.79,416.37 1616.04,416.37C1624.28,416.37 1630.97,423.062 1630.97,431.305L1630.97,656.912C1630.97,662.952 1627.33,668.398 1621.75,670.71C1616.17,673.021 1609.75,671.743 1605.48,667.472L1494.15,556.15C1491.35,553.349 1489.78,549.551 1489.78,545.59L1489.78,382.205ZM1904.55,401.732C1909.89,395.454 1919.33,394.695 1925.61,400.037C1931.88,405.378 1932.64,414.812 1927.3,421.089L1818.59,548.847L1867.94,623.711C1872.14,630.092 1870.85,638.618 1864.95,643.47L1785.95,708.38C1779.59,713.613 1770.17,712.691 1764.93,706.323C1759.7,699.954 1760.62,690.536 1766.99,685.303L1835.6,628.926L1787.48,555.926C1783.82,550.38 1784.27,543.086 1788.58,538.027L1904.55,401.732ZM1519.65,808.482L1519.65,921.243C1519.65,929.486 1512.96,936.178 1504.71,936.178C1496.47,936.178 1489.78,929.486 1489.78,921.243L1489.78,627.489C1489.78,621.524 1493.33,616.131 1498.81,613.772C1504.28,611.413 1510.64,612.539 1514.97,616.637L1622.46,718.273C1625.76,721.401 1627.46,725.867 1627.08,730.403C1626.68,734.939 1624.25,739.05 1620.45,741.567L1519.65,808.482ZM1519.65,772.631L1588.29,727.07L1519.65,662.166L1519.65,772.631ZM1557.22,804.784C1557.22,796.541 1563.91,789.849 1572.16,789.849C1580.4,789.849 1587.09,796.541 1587.09,804.784L1587.09,883.602L1655.44,838.237L1655.61,721.486C1655.62,713.243 1662.32,706.561 1670.57,706.573C1678.81,706.585 1685.49,713.287 1685.48,721.53L1685.29,846.278C1685.29,851.275 1682.78,855.936 1678.62,858.699L1580.42,923.884C1575.83,926.927 1569.95,927.203 1565.1,924.602C1560.25,922 1557.22,916.944 1557.22,911.441L1557.22,804.784ZM1675.21,968.947C1676.58,972.733 1674.61,976.914 1670.82,978.277C1667.04,979.641 1662.86,977.673 1661.49,973.887L1656.07,958.837L1613.81,1012.32L1635.55,1044.73L1651.04,1017.73L1640.55,1023.33C1637,1025.22 1632.58,1023.88 1630.69,1020.33C1628.79,1016.77 1630.14,1012.35 1633.69,1010.46L1666.57,992.927C1669.43,991.397 1672.97,991.951 1675.23,994.285C1677.5,996.62 1677.94,1000.17 1676.32,1002.99L1642.35,1062.17C1641.09,1064.35 1638.8,1065.74 1636.28,1065.82C1633.76,1065.91 1631.37,1064.69 1629.97,1062.6L1598.74,1016.02C1596.98,1013.39 1597.11,1009.93 1599.07,1007.44L1652.77,939.5C1654.41,937.422 1657.05,936.398 1659.66,936.824C1662.28,937.25 1664.45,939.06 1665.35,941.551L1675.21,968.947ZM1796.24,1070.67C1795.92,1074.68 1792.41,1077.68 1788.4,1077.36C1784.39,1077.05 1781.39,1073.53 1781.7,1069.52L1787.34,998.188L1776.26,1014.93C1775.06,1016.73 1773.14,1017.91 1770.99,1018.15C1768.85,1018.39 1766.71,1017.67 1765.14,1016.18L1749.61,1001.38L1761.67,1043.39C1762.79,1047.26 1760.55,1051.31 1756.68,1052.42C1752.81,1053.53 1748.77,1051.29 1747.66,1047.42L1728.18,979.568C1727.27,976.404 1728.59,973.023 1731.41,971.318C1734.23,969.613 1737.83,970.006 1740.22,972.277L1768.9,999.616L1790.75,966.622C1792.58,963.85 1796.06,962.67 1799.2,963.753C1802.35,964.836 1804.36,967.907 1804.1,971.221L1796.24,1070.67ZM1888.43,946.315C1890.58,942.911 1895.08,941.892 1898.49,944.039C1901.89,946.187 1902.91,950.693 1900.76,954.097L1874.73,995.364L1896.83,1010.93C1898.5,1012.1 1899.6,1013.92 1899.86,1015.95C1900.13,1017.97 1899.53,1020.01 1898.22,1021.58L1856.42,1071.41C1853.83,1074.5 1849.23,1074.9 1846.15,1072.32C1843.06,1069.73 1842.66,1065.13 1845.25,1062.04L1881.95,1018.28L1860.66,1003.3C1857.49,1001.06 1856.62,996.729 1858.69,993.444L1888.43,946.315ZM1446.75,1019.53C1442.73,1019.53 1439.46,1016.26 1439.46,1012.24C1439.46,1008.21 1442.73,1004.94 1446.75,1004.94L1576.78,1004.94C1580.8,1004.94 1584.07,1008.21 1584.07,1012.24C1584.07,1016.26 1580.8,1019.53 1576.78,1019.53L1446.75,1019.53ZM1919.57,1019.53C1915.54,1019.53 1912.27,1016.26 1912.27,1012.24C1912.27,1008.21 1915.54,1004.94 1919.57,1004.94L2052.64,1004.94C2056.66,1004.94 2059.93,1008.21 2059.93,1012.24C2059.93,1016.26 2056.66,1019.53 2052.64,1019.53L1919.57,1019.53Z"/>
            </g>
        </g>
        <g id="Combined-Vertical" serif:id="Combined Vertical" transform="matrix(1,0,0,1.86587,4521.08,0)">
            <rect x="2816" y="0" width="1200" height="1200" style="fill:none;"/>
            <g transform="matrix(1,0,0,0.535944,2775.18,15.8615)">
                <path d="M504.354,268.774C506.595,267.935 504.569,261.921 502.241,261.809C493.638,261.394 485.937,262.679 456.815,244.393C427.693,226.107 419.23,196.967 385.368,172.68C353.898,150.11 330.495,150.301 323.493,157.279C309.215,171.508 291.878,244.906 318.829,302.587C325.965,317.86 344.807,328.544 358.412,335.652C359.276,336.106 359.85,336.968 359.937,337.94C360.024,338.912 359.611,339.862 358.842,340.463C339.276,356.66 285.31,408.795 279.336,430.874C272.956,454.454 290.448,512.46 248.821,582.036C210.223,646.548 170.94,658.217 146.494,669.625C128.641,677.956 129.577,682.411 138.571,709.345C146.346,732.63 181.78,768.551 207.967,801.073C234.84,834.448 235.867,836.01 244.48,846.124C248.178,850.466 256.685,853.216 269.299,852.327C284.585,851.25 380.717,830.819 451.863,827.448C488.752,825.7 505.657,845.499 504.916,862.296C504.182,878.935 494.285,884.496 479.191,886.924C478.507,887.034 477.806,886.893 477.217,886.527C457.222,874.099 445.111,860.306 416.754,860.302C390.429,860.299 372.109,873.882 358.46,891.929C357.757,892.864 357.691,894.132 358.293,895.135C358.895,896.138 360.045,896.676 361.201,896.495C394.551,891.59 424.317,910.319 432.854,928.771C433.304,929.898 432.979,931.188 432.047,931.966C431.116,932.745 429.79,932.838 428.76,932.195C405.046,917.377 389.251,912.341 355.521,919.46C322.755,926.376 309.629,953.941 307.253,971.334C304.898,988.58 291.719,995.191 277.294,996.578C259.401,998.298 253.73,986.175 250.147,976.453C249.791,975.503 248.96,974.811 247.962,974.632C246.964,974.453 245.945,974.813 245.281,975.579C237.797,984.626 234.035,1017.99 254.547,1036.8C268.077,1049.21 289.992,1045.24 300.125,1045.36C300.97,1045.38 301.761,1045.78 302.287,1046.44C307.313,1053.7 310.825,1075.7 330.278,1075.08C347.63,1074.53 354.491,1057.08 354.689,1038.19C354.774,1030.09 359.999,1017.31 379.1,1019.6C402.374,1022.4 410.994,1037.1 413.775,1074.25C415.585,1098.41 416.68,1103.04 423.656,1114.08C427.925,1120.83 443.963,1135.49 463.648,1140.31C502.7,1149.87 552.132,1157.42 578.781,1154.6C603.549,1151.98 619.351,1123.43 631.773,1105.79C644.157,1088.2 659.23,1083.26 670.003,1089.86C684.454,1098.72 666.275,1133.26 643.466,1149.6C642.389,1150.33 641.947,1151.7 642.392,1152.92C642.837,1154.14 644.056,1154.91 645.35,1154.78C669.759,1152.36 693.609,1149.53 698.922,1143.23C716.051,1122.91 706.326,1117.94 714.04,1099.96C721.337,1082.94 733.528,1071.66 754.333,1065.42C775.138,1059.18 780.434,1060.33 786.442,1046.63C791.196,1035.78 780.478,1027.56 781.449,1016.6C782.385,1006.03 789.493,1001.27 801.768,1003.49C812.033,1005.35 831.472,1032.51 826.873,1042.47C820.809,1055.59 814.092,1050.41 799.618,1058.21C783.791,1066.73 760.877,1092.73 767.013,1124.8C767.229,1125.88 768.051,1126.75 769.124,1127.01C770.196,1127.28 771.326,1126.9 772.025,1126.05C789.578,1104.5 799.03,1094.44 824.03,1086.64C848.008,1079.16 862.263,1087.07 884.78,1077.77C903.341,1070.09 945.254,1036.92 951.495,1016.46C957.737,996.001 938.183,978.983 944.078,953.324C949.973,927.664 990.67,878.806 1021.01,864.178C1051.35,849.549 1063.9,850.218 1085.57,835.589C1107.24,820.961 1146.97,744.818 1146.97,680.017C1146.97,652.188 1143.26,629.015 1136.62,612.323C1136.23,611.349 1136.39,610.238 1137.06,609.424C1141.42,603.951 1148.73,593.111 1149.26,579.53C1149.96,561.477 1146.54,550.668 1140.79,544.484C1139.93,543.581 1139.75,542.222 1140.35,541.126C1145.57,531.002 1148.68,514.977 1147.01,499.418C1143.77,469.151 1117.81,451.368 1106.71,428.067C1096.83,407.316 1092.89,374.687 1094.69,357.8C1094.9,356.707 1094.45,355.594 1093.55,354.944C1092.65,354.294 1091.45,354.226 1090.48,354.77C1077.24,363.009 1062.95,385.596 1060.74,405.71C1058.95,422.011 1061.58,436.604 1064.03,445.402C1064.43,446.58 1064.02,447.881 1063.02,448.618C1062.02,449.355 1060.65,449.358 1059.65,448.626C1056.53,446.382 1054.28,444.723 1047.7,444.546C1036.72,444.249 1032.17,457.029 1031.06,466.183C1029.95,475.337 1034.39,510.567 1026.9,537.198C1019.41,563.828 1001.1,591.013 973.084,582.136C945.067,573.26 941.926,535.056 948.192,518.573C957.485,494.127 974.005,483.679 994.664,464.314C1024.1,436.726 1037.3,427.631 1042.5,388.677C1048.14,346.492 1018.26,322.669 989.897,278.233C989.196,277.125 987.836,276.63 986.588,277.03C985.339,277.43 984.519,278.623 984.593,279.931C986.648,315.779 990.95,323.376 971.436,350.416C958.023,369.003 940.682,363.818 921.726,386.391C912.738,397.094 907.487,405.408 904.705,414.413C904.31,415.775 902.964,416.63 901.563,416.408C900.163,416.187 899.146,414.958 899.191,413.541C899.511,400.815 904.998,387.231 916.633,375.013C941.152,349.269 945.561,344.901 955.751,322.459C966.541,298.698 967.947,240.876 958.785,219.734C947.44,193.555 927.174,160.77 892.056,145.007C891.005,144.546 889.782,144.756 888.945,145.541C888.109,146.326 887.821,147.534 888.214,148.612C894.598,167.072 883.285,209.331 859.556,212.46C833.377,215.913 805.3,200.943 794.757,169.794C784.668,139.987 801.213,111.198 816.202,95.293C817.076,94.39 817.261,93.024 816.659,91.921C816.056,90.819 814.807,90.236 813.575,90.484C792.827,95.923 765.07,122.797 756.907,153.838C746.369,193.913 756.023,214.294 766.963,231.163C775.269,243.971 787.587,250.227 787.891,277.513C787.94,278.894 786.996,280.112 785.647,280.408C784.297,280.703 782.93,279.992 782.397,278.718C779.623,272.286 775.461,266.131 769.357,258.313C758.572,244.501 741.964,231.766 737.109,217.896C732.952,206.018 731.084,186.512 733.681,172.879C733.977,171.746 733.549,170.548 732.604,169.858C731.658,169.169 730.386,169.128 729.398,169.757C719.383,176.293 708.559,189.885 706.533,214.575C706.45,215.589 705.837,216.484 704.921,216.927C704.005,217.37 702.923,217.295 702.077,216.73C690.09,206.756 675.187,182.499 668.106,167.964C654.929,140.917 655.334,110.925 652.241,103.305C651.212,100.771 643.212,90.337 621.71,90.931C585.394,91.935 512.306,155.207 501.104,222.418C496.079,252.567 539.904,314.446 581.529,325.414C582.715,325.676 583.937,325.155 584.57,324.117C585.202,323.08 585.106,321.755 584.33,320.82C549.023,278.109 534.202,233.77 537.512,199.012C540.825,164.233 565.253,148.734 590.392,149.6C615.531,150.467 639.37,173.439 639.37,202.046C639.37,230.653 631.213,247.997 624.918,256.944C620.412,263.347 621.219,268.718 623.781,272.547C626.493,276.6 634.324,284.777 644.551,290.334C645.62,290.879 646.917,290.69 647.785,289.862C648.654,289.035 648.905,287.749 648.412,286.655C647.29,284.049 646.603,280.877 646.603,276.979C646.603,270.182 651.29,255.249 667.908,256.385C684.525,257.521 712.051,287.183 700.87,327.434C692.981,355.833 680.772,361.783 666.683,371.027C665.881,371.556 665.395,372.45 665.388,373.412C665.397,405.884 682.246,469.306 713.093,491.625C718.455,495.504 722.867,495.713 730.911,497.655C746.677,501.46 767.528,506.254 774.741,512.08C781.39,517.451 790.634,549.702 791.818,566.442C791.857,567.35 791.463,568.223 790.757,568.796C790.051,569.368 789.115,569.572 788.235,569.346C774.281,565.881 746.093,561.358 725.884,573.832C725.014,574.39 724.513,575.376 724.576,576.408C724.638,577.44 725.254,578.358 726.186,578.807C746.79,589.506 767.982,612.497 774.463,623.872C778.626,631.179 770.466,687.52 757.29,709.568C756.66,710.479 755.558,710.941 754.467,710.754C753.375,710.566 752.491,709.764 752.199,708.695C737.604,655.548 699.152,639.101 675.336,638.087C674.156,638.074 673.091,638.788 672.653,639.883C672.216,640.979 672.498,642.23 673.362,643.033C694.695,664.374 712.448,713.073 711.424,723.121C709.518,741.824 680.32,770.835 665.573,780.707C664.659,781.25 663.519,781.243 662.612,780.687C661.706,780.131 661.182,779.118 661.252,778.057C663.142,742.741 646.016,698.476 602.751,684.123C601.851,683.831 600.865,684.001 600.115,684.578C599.366,685.154 598.949,686.064 599.001,687.008C602.642,753.314 575.058,777.615 532.062,802.81C531.172,803.331 530.071,803.336 529.176,802.823C528.282,802.31 527.73,801.357 527.73,800.326C527.79,791.113 526.077,784.579 520.959,780.116C512.408,772.659 497.033,771.447 478.309,775.261C459.584,779.076 402.504,818.288 337.376,826.104C302.701,830.265 276.74,829.02 254.201,816.884C232.221,805.048 195.73,762.543 188.468,729.248C188.163,727.761 189.068,726.294 190.533,725.898C202.54,722.574 208.325,728.095 213.749,737.204C214.274,738.067 215.213,738.592 216.223,738.585C217.234,738.579 218.166,738.042 218.679,737.172C225.193,725.078 231.469,700.776 228.195,695.521C217.381,678.166 205.896,673.754 189.892,673.168C188.95,673.127 188.089,672.627 187.586,671.829C187.084,671.032 187.004,670.039 187.374,669.172C201.899,659.206 247.701,632.344 280.039,585.585C294.832,564.195 316.046,518.102 309.145,454.296C307.611,440.115 307.258,432.905 312.959,423.154C338.185,380.005 429.784,296.675 504.354,268.774Z"/>
                <g transform="matrix(0.994714,0.102686,-0.102686,0.994714,31.76,-101.608)">
                    <path d="M1039.94,307.767C1039.71,308.929 1038.8,309.834 1037.64,310.049C1036.47,310.264 1035.3,309.744 1034.67,308.74C1024.96,292.718 1019.08,285.834 1009.63,276.303C996.077,262.615 989.536,257.792 980.152,248.209C967.294,235.078 963.32,219.901 966.368,206.581C966.632,205.447 967.559,204.587 968.71,204.409C969.86,204.231 971.004,204.77 971.599,205.771C976.509,214.139 983.182,219.17 994.395,224.262C1010.66,231.646 1019.58,233.731 1029.88,248.218C1045.74,270.535 1042.83,293.34 1039.94,307.767Z"/>
                </g>
                <g transform="matrix(-0.736997,0.185338,0.174961,0.695732,1677.12,588.071)">
                    <path d="M1040.41,305.315C1040.12,306.921 1038.94,308.181 1037.43,308.5C1035.92,308.818 1034.37,308.131 1033.53,306.763C1025.4,293.205 1021.99,289.882 1010.26,285.588C994.182,279.7 977.457,272.777 962.592,253.705C951.791,239.846 950.181,225.649 950.787,212.26C950.847,210.767 951.685,209.434 952.962,208.8C954.239,208.166 955.742,208.337 956.863,209.243C966.12,216.406 983.535,219.33 994.395,224.262C1010.66,231.646 1019.58,233.731 1029.88,248.218C1044.86,269.309 1043.1,290.836 1040.41,305.315Z"/>
                </g>
                <g transform="matrix(-0.392227,0.426483,0.382697,0.351958,506.582,436.898)">
                    <path d="M1035.07,311.3C1034.47,313.353 1032.85,314.829 1030.93,315.075C1029,315.321 1027.12,314.293 1026.12,312.444C1017.84,296.664 1007.92,288.319 999.109,279.421C985.551,265.733 980.202,268.121 970.818,258.537C957.889,245.333 950.998,211.868 953.295,193.273C953.61,191.471 954.718,189.967 956.243,189.271C957.767,188.575 959.504,188.782 960.862,189.82C971.486,197.586 985.832,206.132 997.649,210.165C1010.3,214.484 1020.68,225.817 1028.12,239.953C1041.19,264.766 1041.55,289.106 1035.07,311.3Z"/>
                </g>
                <path d="M367.544,515.171C366.576,515.184 365.681,515.686 365.165,516.505C364.649,517.323 364.583,518.348 364.989,519.226C366.972,523.13 369.85,526.838 372.301,529.038C372.931,529.563 373.755,529.793 374.566,529.67C376.25,529.436 377.502,529.191 378.704,528.893C379.444,528.705 380.228,528.819 380.884,529.21C381.54,529.601 382.013,530.237 382.2,530.978C384.339,537.678 392.625,548.259 395.645,548.598C398.462,548.914 418.869,542.845 432.773,521.762C437.188,515.067 440.106,513.715 444.138,513.168C444.622,513.103 445.082,512.915 445.473,512.622C447.703,511.021 448.944,509.74 449.821,508.603C450.301,507.895 450.439,507.01 450.195,506.19C449.951,505.37 449.352,504.704 448.563,504.374C441.064,501.424 426.57,497.087 407.639,497.91C401.932,498.159 387.882,509.472 379.139,513.368C377.418,514.135 372.948,515.108 367.544,515.171Z"/>
            </g>
            <g transform="matrix(1.32432,0,0,0.709763,1098.84,399.073)">
                <path d="M1722.09,542.831L1685.48,583.445L1685.48,679.294C1685.48,687.537 1678.79,694.229 1670.54,694.229C1662.3,694.229 1655.61,687.537 1655.61,679.294L1655.61,396.333C1655.61,391.427 1658.02,386.833 1662.06,384.045C1666.09,381.256 1671.24,380.628 1675.83,382.365L1797.73,428.502C1802.35,430.248 1805.8,434.16 1806.96,438.954C1808.12,443.748 1806.84,448.806 1803.54,452.47L1742.86,519.792L1801.38,612.267C1805.78,619.232 1803.71,628.466 1796.74,632.873C1789.78,637.281 1780.54,635.205 1776.14,628.24L1722.09,542.831ZM1685.48,538.833L1766.72,448.703L1685.48,417.954L1685.48,538.833ZM1898.21,541.95L1878.15,564.294C1872.65,570.428 1863.2,570.939 1857.06,565.433C1850.93,559.928 1850.42,550.477 1855.92,544.343L1983.56,402.122C1987.7,397.517 1994.24,395.937 2000.02,398.15C2005.8,400.363 2009.61,405.909 2009.61,412.097L2009.61,739.745C2009.61,747.987 2002.92,754.68 1994.68,754.68C1986.43,754.68 1979.74,747.987 1979.74,739.745L1979.74,609.35L1898.21,541.95ZM1979.74,570.597L1979.74,451.098L1918.17,519.702L1979.74,570.597ZM1803.88,846.93L1735.55,742.662L1735.55,910.628C1735.55,918.87 1728.85,925.562 1720.61,925.562C1712.37,925.562 1705.67,918.87 1705.67,910.628L1705.67,692.626C1705.67,686.023 1710.01,680.204 1716.34,678.315C1722.67,676.427 1729.48,678.917 1733.1,684.44L1803.88,792.436L1803.88,718.426C1803.88,710.183 1810.57,703.491 1818.81,703.491C1827.05,703.491 1833.75,710.183 1833.75,718.426L1833.75,880.382C1833.75,888.625 1827.05,895.317 1818.81,895.317C1810.57,895.317 1803.88,888.625 1803.88,880.382L1803.88,846.93ZM1884,777.879L1884,911.229C1884,919.472 1877.31,926.164 1869.06,926.164C1860.82,926.164 1854.13,919.472 1854.13,911.229L1854.13,686.358C1854.13,678.115 1860.82,671.423 1869.06,671.423C1877.31,671.423 1884,678.115 1884,686.358L1884,729.831L1942.02,656.723C1947.14,650.266 1956.55,649.185 1963,654.309C1969.46,659.433 1970.54,668.835 1965.42,675.291L1913.18,741.114L1999.86,892.91C2003.95,900.068 2001.46,909.198 1994.3,913.286C1987.14,917.373 1978.01,914.88 1973.92,907.723L1893.17,766.318L1884,777.879ZM1687.98,1025.97L1676.32,1046.28C1674.32,1049.77 1669.86,1050.97 1666.37,1048.97C1662.88,1046.97 1661.67,1042.51 1663.67,1039.02L1705.01,967.017C1706.46,964.477 1709.3,963.056 1712.21,963.408C1715.12,963.761 1717.53,965.82 1718.34,968.635L1746.89,1068.08C1748,1071.95 1745.76,1075.99 1741.89,1077.1C1738.02,1078.21 1733.98,1075.97 1732.87,1072.11L1723.63,1039.9L1687.98,1025.97ZM1718.56,1022.27L1709.08,989.219L1695.32,1013.18L1718.56,1022.27ZM1821.46,1021.73L1819.89,1041.59L1847.6,1027.89C1851.21,1026.11 1855.59,1027.59 1857.37,1031.19C1859.15,1034.8 1857.67,1039.18 1854.07,1040.96L1814.85,1060.36C1812.49,1061.52 1809.7,1061.33 1807.53,1059.86C1805.35,1058.39 1804.14,1055.87 1804.35,1053.25L1810.2,979.158C1810.45,975.983 1812.73,973.338 1815.83,972.625L1855.37,963.541C1859.3,962.639 1863.21,965.092 1864.11,969.014C1865.01,972.936 1862.56,976.852 1858.64,977.753L1824.31,985.64L1822.78,1005.07L1839.37,997.443C1843.03,995.762 1847.36,997.366 1849.04,1001.02C1850.72,1004.68 1849.12,1009.01 1845.46,1010.69L1821.46,1021.73ZM1489.78,382.205C1489.78,373.962 1496.47,367.27 1504.71,367.27C1512.96,367.27 1519.65,373.962 1519.65,382.205L1519.65,539.403L1601.1,620.856L1601.1,431.305C1601.1,423.062 1607.79,416.37 1616.04,416.37C1624.28,416.37 1630.97,423.062 1630.97,431.305L1630.97,656.912C1630.97,662.952 1627.33,668.398 1621.75,670.71C1616.17,673.021 1609.75,671.743 1605.48,667.472L1494.15,556.15C1491.35,553.349 1489.78,549.551 1489.78,545.59L1489.78,382.205ZM1904.55,401.732C1909.89,395.454 1919.33,394.695 1925.61,400.037C1931.88,405.378 1932.64,414.812 1927.3,421.089L1818.59,548.847L1867.94,623.711C1872.14,630.092 1870.85,638.618 1864.95,643.47L1785.95,708.38C1779.59,713.613 1770.17,712.691 1764.93,706.323C1759.7,699.954 1760.62,690.536 1766.99,685.303L1835.6,628.926L1787.48,555.926C1783.82,550.38 1784.27,543.086 1788.58,538.027L1904.55,401.732ZM1519.65,808.482L1519.65,921.243C1519.65,929.486 1512.96,936.178 1504.71,936.178C1496.47,936.178 1489.78,929.486 1489.78,921.243L1489.78,627.489C1489.78,621.524 1493.33,616.131 1498.81,613.772C1504.28,611.413 1510.64,612.539 1514.97,616.637L1622.46,718.273C1625.76,721.401 1627.46,725.867 1627.08,730.403C1626.68,734.939 1624.25,739.05 1620.45,741.567L1519.65,808.482ZM1519.65,772.631L1588.29,727.07L1519.65,662.166L1519.65,772.631ZM1557.22,804.784C1557.22,796.541 1563.91,789.849 1572.16,789.849C1580.4,789.849 1587.09,796.541 1587.09,804.784L1587.09,883.602L1655.44,838.237L1655.61,721.486C1655.62,713.243 1662.32,706.561 1670.57,706.573C1678.81,706.585 1685.49,713.287 1685.48,721.53L1685.29,846.278C1685.29,851.275 1682.78,855.936 1678.62,858.699L1580.42,923.884C1575.83,926.927 1569.95,927.203 1565.1,924.602C1560.25,922 1557.22,916.944 1557.22,911.441L1557.22,804.784ZM1675.21,968.947C1676.58,972.733 1674.61,976.914 1670.82,978.277C1667.04,979.641 1662.86,977.673 1661.49,973.887L1656.07,958.837L1613.81,1012.32L1635.55,1044.73L1651.04,1017.73L1640.55,1023.33C1637,1025.22 1632.58,1023.88 1630.69,1020.33C1628.79,1016.77 1630.14,1012.35 1633.69,1010.46L1666.57,992.927C1669.43,991.397 1672.97,991.951 1675.23,994.285C1677.5,996.62 1677.94,1000.17 1676.32,1002.99L1642.35,1062.17C1641.09,1064.35 1638.8,1065.74 1636.28,1065.82C1633.76,1065.91 1631.37,1064.69 1629.97,1062.6L1598.74,1016.02C1596.98,1013.39 1597.11,1009.93 1599.07,1007.44L1652.77,939.5C1654.41,937.422 1657.05,936.398 1659.66,936.824C1662.28,937.25 1664.45,939.06 1665.35,941.551L1675.21,968.947ZM1796.24,1070.67C1795.92,1074.68 1792.41,1077.68 1788.4,1077.36C1784.39,1077.05 1781.39,1073.53 1781.7,1069.52L1787.34,998.188L1776.26,1014.93C1775.06,1016.73 1773.14,1017.91 1770.99,1018.15C1768.85,1018.39 1766.71,1017.67 1765.14,1016.18L1749.61,1001.38L1761.67,1043.39C1762.79,1047.26 1760.55,1051.31 1756.68,1052.42C1752.81,1053.53 1748.77,1051.29 1747.66,1047.42L1728.18,979.568C1727.27,976.404 1728.59,973.023 1731.41,971.318C1734.23,969.613 1737.83,970.006 1740.22,972.277L1768.9,999.616L1790.75,966.622C1792.58,963.85 1796.06,962.67 1799.2,963.753C1802.35,964.836 1804.36,967.907 1804.1,971.221L1796.24,1070.67ZM1888.43,946.315C1890.58,942.911 1895.08,941.892 1898.49,944.039C1901.89,946.187 1902.91,950.693 1900.76,954.097L1874.73,995.364L1896.83,1010.93C1898.5,1012.1 1899.6,1013.92 1899.86,1015.95C1900.13,1017.97 1899.53,1020.01 1898.22,1021.58L1856.42,1071.41C1853.83,1074.5 1849.23,1074.9 1846.15,1072.32C1843.06,1069.73 1842.66,1065.13 1845.25,1062.04L1881.95,1018.28L1860.66,1003.3C1857.49,1001.06 1856.62,996.729 1858.69,993.444L1888.43,946.315ZM1446.75,1019.53C1442.73,1019.53 1439.46,1016.26 1439.46,1012.24C1439.46,1008.21 1442.73,1004.94 1446.75,1004.94L1576.78,1004.94C1580.8,1004.94 1584.07,1008.21 1584.07,1012.24C1584.07,1016.26 1580.8,1019.53 1576.78,1019.53L1446.75,1019.53ZM1919.57,1019.53C1915.54,1019.53 1912.27,1016.26 1912.27,1012.24C1912.27,1008.21 1915.54,1004.94 1919.57,1004.94L2052.64,1004.94C2056.66,1004.94 2059.93,1008.21 2059.93,1012.24C2059.93,1016.26 2056.66,1019.53 2052.64,1019.53L1919.57,1019.53Z"/>
            </g>
        </g>
        <g id="Combined-Horizontal" serif:id="Combined Horizontal" transform="matrix(2.43386,0,0,1,-6057.45,1039.04)">
            <rect x="4224.33" y="0" width="1200" height="1200" style="fill:none;"/>
            <g transform="matrix(0.41087,0,0,1,4205.18,-22.813)">
                <path d="M504.354,268.774C506.595,267.935 504.569,261.921 502.241,261.809C493.638,261.394 485.937,262.679 456.815,244.393C427.693,226.107 419.23,196.967 385.368,172.68C353.898,150.11 330.495,150.301 323.493,157.279C309.215,171.508 291.878,244.906 318.829,302.587C325.965,317.86 344.807,328.544 358.412,335.652C359.276,336.106 359.85,336.968 359.937,337.94C360.024,338.912 359.611,339.862 358.842,340.463C339.276,356.66 285.31,408.795 279.336,430.874C272.956,454.454 290.448,512.46 248.821,582.036C210.223,646.548 170.94,658.217 146.494,669.625C128.641,677.956 129.577,682.411 138.571,709.345C146.346,732.63 181.78,768.551 207.967,801.073C234.84,834.448 235.867,836.01 244.48,846.124C248.178,850.466 256.685,853.216 269.299,852.327C284.585,851.25 380.717,830.819 451.863,827.448C488.752,825.7 505.657,845.499 504.916,862.296C504.182,878.935 494.285,884.496 479.191,886.924C478.507,887.034 477.806,886.893 477.217,886.527C457.222,874.099 445.111,860.306 416.754,860.302C390.429,860.299 372.109,873.882 358.46,891.929C357.757,892.864 357.691,894.132 358.293,895.135C358.895,896.138 360.045,896.676 361.201,896.495C394.551,891.59 424.317,910.319 432.854,928.771C433.304,929.898 432.979,931.188 432.047,931.966C431.116,932.745 429.79,932.838 428.76,932.195C405.046,917.377 389.251,912.341 355.521,919.46C322.755,926.376 309.629,953.941 307.253,971.334C304.898,988.58 291.719,995.191 277.294,996.578C259.401,998.298 253.73,986.175 250.147,976.453C249.791,975.503 248.96,974.811 247.962,974.632C246.964,974.453 245.945,974.813 245.281,975.579C237.797,984.626 234.035,1017.99 254.547,1036.8C268.077,1049.21 289.992,1045.24 300.125,1045.36C300.97,1045.38 301.761,1045.78 302.287,1046.44C307.313,1053.7 310.825,1075.7 330.278,1075.08C347.63,1074.53 354.491,1057.08 354.689,1038.19C354.774,1030.09 359.999,1017.31 379.1,1019.6C402.374,1022.4 410.994,1037.1 413.775,1074.25C415.585,1098.41 416.68,1103.04 423.656,1114.08C427.925,1120.83 443.963,1135.49 463.648,1140.31C502.7,1149.87 552.132,1157.42 578.781,1154.6C603.549,1151.98 619.351,1123.43 631.773,1105.79C644.157,1088.2 659.23,1083.26 670.003,1089.86C684.454,1098.72 666.275,1133.26 643.466,1149.6C642.389,1150.33 641.947,1151.7 642.392,1152.92C642.837,1154.14 644.056,1154.91 645.35,1154.78C669.759,1152.36 693.609,1149.53 698.922,1143.23C716.051,1122.91 706.326,1117.94 714.04,1099.96C721.337,1082.94 733.528,1071.66 754.333,1065.42C775.138,1059.18 780.434,1060.33 786.442,1046.63C791.196,1035.78 780.478,1027.56 781.449,1016.6C782.385,1006.03 789.493,1001.27 801.768,1003.49C812.033,1005.35 831.472,1032.51 826.873,1042.47C820.809,1055.59 814.092,1050.41 799.618,1058.21C783.791,1066.73 760.877,1092.73 767.013,1124.8C767.229,1125.88 768.051,1126.75 769.124,1127.01C770.196,1127.28 771.326,1126.9 772.025,1126.05C789.578,1104.5 799.03,1094.44 824.03,1086.64C848.008,1079.16 862.263,1087.07 884.78,1077.77C903.341,1070.09 945.254,1036.92 951.495,1016.46C957.737,996.001 938.183,978.983 944.078,953.324C949.973,927.664 990.67,878.806 1021.01,864.178C1051.35,849.549 1063.9,850.218 1085.57,835.589C1107.24,820.961 1146.97,744.818 1146.97,680.017C1146.97,652.188 1143.26,629.015 1136.62,612.323C1136.23,611.349 1136.39,610.238 1137.06,609.424C1141.42,603.951 1148.73,593.111 1149.26,579.53C1149.96,561.477 1146.54,550.668 1140.79,544.484C1139.93,543.581 1139.75,542.222 1140.35,541.126C1145.57,531.002 1148.68,514.977 1147.01,499.418C1143.77,469.151 1117.81,451.368 1106.71,428.067C1096.83,407.316 1092.89,374.687 1094.69,357.8C1094.9,356.707 1094.45,355.594 1093.55,354.944C1092.65,354.294 1091.45,354.226 1090.48,354.77C1077.24,363.009 1062.95,385.596 1060.74,405.71C1058.95,422.011 1061.58,436.604 1064.03,445.402C1064.43,446.58 1064.02,447.881 1063.02,448.618C1062.02,449.355 1060.65,449.358 1059.65,448.626C1056.53,446.382 1054.28,444.723 1047.7,444.546C1036.72,444.249 1032.17,457.029 1031.06,466.183C1029.95,475.337 1034.39,510.567 1026.9,537.198C1019.41,563.828 1001.1,591.013 973.084,582.136C945.067,573.26 941.926,535.056 948.192,518.573C957.485,494.127 974.005,483.679 994.664,464.314C1024.1,436.726 1037.3,427.631 1042.5,388.677C1048.14,346.492 1018.26,322.669 989.897,278.233C989.196,277.125 987.836,276.63 986.588,277.03C985.339,277.43 984.519,278.623 984.593,279.931C986.648,315.779 990.95,323.376 971.436,350.416C958.023,369.003 940.682,363.818 921.726,386.391C912.738,397.094 907.487,405.408 904.705,414.413C904.31,415.775 902.964,416.63 901.563,416.408C900.163,416.187 899.146,414.958 899.191,413.541C899.511,400.815 904.998,387.231 916.633,375.013C941.152,349.269 945.561,344.901 955.751,322.459C966.541,298.698 967.947,240.876 958.785,219.734C947.44,193.555 927.174,160.77 892.056,145.007C891.005,144.546 889.782,144.756 888.945,145.541C888.109,146.326 887.821,147.534 888.214,148.612C894.598,167.072 883.285,209.331 859.556,212.46C833.377,215.913 805.3,200.943 794.757,169.794C784.668,139.987 801.213,111.198 816.202,95.293C817.076,94.39 817.261,93.024 816.659,91.921C816.056,90.819 814.807,90.236 813.575,90.484C792.827,95.923 765.07,122.797 756.907,153.838C746.369,193.913 756.023,214.294 766.963,231.163C775.269,243.971 787.587,250.227 787.891,277.513C787.94,278.894 786.996,280.112 785.647,280.408C784.297,280.703 782.93,279.992 782.397,278.718C779.623,272.286 775.461,266.131 769.357,258.313C758.572,244.501 741.964,231.766 737.109,217.896C732.952,206.018 731.084,186.512 733.681,172.879C733.977,171.746 733.549,170.548 732.604,169.858C731.658,169.169 730.386,169.128 729.398,169.757C719.383,176.293 708.559,189.885 706.533,214.575C706.45,215.589 705.837,216.484 704.921,216.927C704.005,217.37 702.923,217.295 702.077,216.73C690.09,206.756 675.187,182.499 668.106,167.964C654.929,140.917 655.334,110.925 652.241,103.305C651.212,100.771 643.212,90.337 621.71,90.931C585.394,91.935 512.306,155.207 501.104,222.418C496.079,252.567 539.904,314.446 581.529,325.414C582.715,325.676 583.937,325.155 584.57,324.117C585.202,323.08 585.106,321.755 584.33,320.82C549.023,278.109 534.202,233.77 537.512,199.012C540.825,164.233 565.253,148.734 590.392,149.6C615.531,150.467 639.37,173.439 639.37,202.046C639.37,230.653 631.213,247.997 624.918,256.944C620.412,263.347 621.219,268.718 623.781,272.547C626.493,276.6 634.324,284.777 644.551,290.334C645.62,290.879 646.917,290.69 647.785,289.862C648.654,289.035 648.905,287.749 648.412,286.655C647.29,284.049 646.603,280.877 646.603,276.979C646.603,270.182 651.29,255.249 667.908,256.385C684.525,257.521 712.051,287.183 700.87,327.434C692.981,355.833 680.772,361.783 666.683,371.027C665.881,371.556 665.395,372.45 665.388,373.412C665.397,405.884 682.246,469.306 713.093,491.625C718.455,495.504 722.867,495.713 730.911,497.655C746.677,501.46 767.528,506.254 774.741,512.08C781.39,517.451 790.634,549.702 791.818,566.442C791.857,567.35 791.463,568.223 790.757,568.796C790.051,569.368 789.115,569.572 788.235,569.346C774.281,565.881 746.093,561.358 725.884,573.832C725.014,574.39 724.513,575.376 724.576,576.408C724.638,577.44 725.254,578.358 726.186,578.807C746.79,589.506 767.982,612.497 774.463,623.872C778.626,631.179 770.466,687.52 757.29,709.568C756.66,710.479 755.558,710.941 754.467,710.754C753.375,710.566 752.491,709.764 752.199,708.695C737.604,655.548 699.152,639.101 675.336,638.087C674.156,638.074 673.091,638.788 672.653,639.883C672.216,640.979 672.498,642.23 673.362,643.033C694.695,664.374 712.448,713.073 711.424,723.121C709.518,741.824 680.32,770.835 665.573,780.707C664.659,781.25 663.519,781.243 662.612,780.687C661.706,780.131 661.182,779.118 661.252,778.057C663.142,742.741 646.016,698.476 602.751,684.123C601.851,683.831 600.865,684.001 600.115,684.578C599.366,685.154 598.949,686.064 599.001,687.008C602.642,753.314 575.058,777.615 532.062,802.81C531.172,803.331 530.071,803.336 529.176,802.823C528.282,802.31 527.73,801.357 527.73,800.326C527.79,791.113 526.077,784.579 520.959,780.116C512.408,772.659 497.033,771.447 478.309,775.261C459.584,779.076 402.504,818.288 337.376,826.104C302.701,830.265 276.74,829.02 254.201,816.884C232.221,805.048 195.73,762.543 188.468,729.248C188.163,727.761 189.068,726.294 190.533,725.898C202.54,722.574 208.325,728.095 213.749,737.204C214.274,738.067 215.213,738.592 216.223,738.585C217.234,738.579 218.166,738.042 218.679,737.172C225.193,725.078 231.469,700.776 228.195,695.521C217.381,678.166 205.896,673.754 189.892,673.168C188.95,673.127 188.089,672.627 187.586,671.829C187.084,671.032 187.004,670.039 187.374,669.172C201.899,659.206 247.701,632.344 280.039,585.585C294.832,564.195 316.046,518.102 309.145,454.296C307.611,440.115 307.258,432.905 312.959,423.154C338.185,380.005 429.784,296.675 504.354,268.774Z"/>
                <g transform="matrix(0.994714,0.102686,-0.102686,0.994714,31.76,-101.608)">
                    <path d="M1039.94,307.767C1039.71,308.929 1038.8,309.834 1037.64,310.049C1036.47,310.264 1035.3,309.744 1034.67,308.74C1024.96,292.718 1019.08,285.834 1009.63,276.303C996.077,262.615 989.536,257.792 980.152,248.209C967.294,235.078 963.32,219.901 966.368,206.581C966.632,205.447 967.559,204.587 968.71,204.409C969.86,204.231 971.004,204.77 971.599,205.771C976.509,214.139 983.182,219.17 994.395,224.262C1010.66,231.646 1019.58,233.731 1029.88,248.218C1045.74,270.535 1042.83,293.34 1039.94,307.767Z"/>
                </g>
                <g transform="matrix(-0.736997,0.185338,0.174961,0.695732,1677.12,588.071)">
                    <path d="M1040.41,305.315C1040.12,306.921 1038.94,308.181 1037.43,308.5C1035.92,308.818 1034.37,308.131 1033.53,306.763C1025.4,293.205 1021.99,289.882 1010.26,285.588C994.182,279.7 977.457,272.777 962.592,253.705C951.791,239.846 950.181,225.649 950.787,212.26C950.847,210.767 951.685,209.434 952.962,208.8C954.239,208.166 955.742,208.337 956.863,209.243C966.12,216.406 983.535,219.33 994.395,224.262C1010.66,231.646 1019.58,233.731 1029.88,248.218C1044.86,269.309 1043.1,290.836 1040.41,305.315Z"/>
                </g>
                <g transform="matrix(-0.392227,0.426483,0.382697,0.351958,506.582,436.898)">
                    <path d="M1035.07,311.3C1034.47,313.353 1032.85,314.829 1030.93,315.075C1029,315.321 1027.12,314.293 1026.12,312.444C1017.84,296.664 1007.92,288.319 999.109,279.421C985.551,265.733 980.202,268.121 970.818,258.537C957.889,245.333 950.998,211.868 953.295,193.273C953.61,191.471 954.718,189.967 956.243,189.271C957.767,188.575 959.504,188.782 960.862,189.82C971.486,197.586 985.832,206.132 997.649,210.165C1010.3,214.484 1020.68,225.817 1028.12,239.953C1041.19,264.766 1041.55,289.106 1035.07,311.3Z"/>
                </g>
                <path d="M367.544,515.171C366.576,515.184 365.681,515.686 365.165,516.505C364.649,517.323 364.583,518.348 364.989,519.226C366.972,523.13 369.85,526.838 372.301,529.038C372.931,529.563 373.755,529.793 374.566,529.67C376.25,529.436 377.502,529.191 378.704,528.893C379.444,528.705 380.228,528.819 380.884,529.21C381.54,529.601 382.013,530.237 382.2,530.978C384.339,537.678 392.625,548.259 395.645,548.598C398.462,548.914 418.869,542.845 432.773,521.762C437.188,515.067 440.106,513.715 444.138,513.168C444.622,513.103 445.082,512.915 445.473,512.622C447.703,511.021 448.944,509.74 449.821,508.603C450.301,507.895 450.439,507.01 450.195,506.19C449.951,505.37 449.352,504.704 448.563,504.374C441.064,501.424 426.57,497.087 407.639,497.91C401.932,498.159 387.882,509.472 379.139,513.368C377.418,514.135 372.948,515.108 367.544,515.171Z"/>
            </g>
            <g transform="matrix(0.616969,0,0,1.50162,3811.7,-224.179)">
                <g transform="matrix(1,0,0,1,-18.4126,-8.73144)">
                    <path d="M1489.78,382.205C1489.78,373.962 1496.47,367.27 1504.71,367.27C1512.96,367.27 1519.65,373.962 1519.65,382.205L1519.65,539.403L1601.1,620.856L1601.1,431.305C1601.1,423.062 1607.79,416.37 1616.04,416.37C1624.28,416.37 1630.97,423.062 1630.97,431.305L1630.97,656.912C1630.97,662.952 1627.33,668.398 1621.75,670.71C1616.17,673.021 1609.75,671.743 1605.48,667.472L1494.15,556.15C1491.35,553.349 1489.78,549.551 1489.78,545.59L1489.78,382.205Z"/>
                </g>
                <g transform="matrix(1,0,0,1,-10.5819,-16.5621)">
                    <path d="M1712.87,513.253L1676.26,553.867L1676.26,649.716C1676.26,657.959 1669.57,664.651 1661.33,664.651C1653.08,664.651 1646.39,657.959 1646.39,649.716L1646.39,366.755C1646.39,361.849 1648.8,357.255 1652.84,354.467C1656.88,351.678 1662.02,351.05 1666.61,352.787L1788.52,398.924C1793.13,400.67 1796.58,404.582 1797.75,409.376C1798.91,414.169 1797.63,419.228 1794.32,422.892L1733.64,490.214L1790.88,580.672C1795.29,587.637 1793.21,596.87 1786.25,601.278C1779.28,605.686 1770.05,603.61 1765.64,596.644L1712.87,513.253ZM1676.26,509.255L1757.51,419.125L1676.26,388.376L1676.26,509.255Z"/>
                </g>
                <g transform="matrix(1,0,0,1,80.4227,112.114)">
                    <path d="M1805.72,239.617C1811.06,233.339 1820.49,232.579 1826.77,237.921C1833.05,243.263 1833.81,252.696 1828.47,258.974L1719.75,386.731L1769.1,461.596C1773.31,467.976 1772.02,476.503 1766.11,481.354L1670.81,559.668C1664.44,564.901 1655.02,563.979 1649.79,557.611C1644.55,551.242 1645.48,541.823 1651.84,536.59L1736.77,466.811L1688.64,393.81C1684.99,388.264 1685.43,380.971 1689.74,375.912L1805.72,239.617Z"/>
                </g>
                <g transform="matrix(1,0,0,1,9.09025,-14.0224)">
                    <path d="M2063.74,557.484C2063.74,549.241 2070.43,542.549 2078.68,542.549C2086.92,542.549 2093.61,549.241 2093.61,557.484L2093.61,643.887L2161.94,598.53L2161.94,413.527C2161.94,405.284 2168.64,398.592 2176.88,398.592C2185.12,398.592 2191.81,405.284 2191.81,413.527L2191.81,606.542C2191.81,611.546 2189.31,616.217 2185.14,618.985L2086.94,684.169C2082.35,687.212 2076.47,687.488 2071.62,684.887C2066.77,682.286 2063.74,677.229 2063.74,671.726L2063.74,557.484Z"/>
                </g>
                <g transform="matrix(1.15253,0,0,1.15842,-317.842,-85.963)">
                    <path d="M2289.21,577.45L2229.92,487.441L2229.92,660.966C2229.92,668.082 2224.12,673.858 2216.96,673.858C2209.81,673.858 2204.01,668.082 2204.01,660.966L2204.01,444.248C2204.01,438.548 2207.77,433.524 2213.26,431.894C2218.75,430.264 2224.66,432.414 2227.8,437.181L2289.21,530.408L2289.21,438.077C2289.21,430.962 2295.02,425.185 2302.17,425.185C2309.32,425.185 2315.13,430.962 2315.13,438.077L2315.13,635.325C2315.13,642.44 2309.32,648.217 2302.17,648.217C2295.02,648.217 2289.21,642.44 2289.21,635.325L2289.21,577.45Z"/>
                </g>
                <g transform="matrix(1,0,0,1,39.8618,-19.176)">
                    <path d="M2363.66,484.765L2363.66,660.721C2363.66,668.964 2356.97,675.656 2348.73,675.656C2340.49,675.656 2333.79,668.964 2333.79,660.721L2333.79,392.363C2333.79,384.12 2340.49,377.428 2348.73,377.428C2356.97,377.428 2363.66,384.12 2363.66,392.363L2363.66,436.717L2421.69,363.608C2426.81,357.152 2436.21,356.07 2442.67,361.194C2449.12,366.318 2450.21,375.72 2445.08,382.177L2392.84,447.999L2514.92,661.781C2519.01,668.938 2516.52,678.068 2509.36,682.156C2502.2,686.243 2493.07,683.751 2488.99,676.593L2372.84,473.204L2363.66,484.765Z"/>
                </g>
                <g transform="matrix(1,0,0,1,179.681,-31.8001)">
                    <path d="M1700.11,534.068L1680.06,556.411C1674.55,562.546 1665.1,563.057 1658.97,557.551C1652.84,552.046 1652.32,542.595 1657.83,536.461L1687.35,503.567C1687.43,503.481 1687.5,503.396 1687.58,503.31L1785.47,394.24C1789.6,389.635 1796.15,388.055 1801.92,390.268C1807.7,392.481 1811.52,398.027 1811.52,404.215L1811.52,702.363C1811.52,710.605 1804.83,717.297 1796.58,717.297C1788.34,717.297 1781.65,710.605 1781.65,702.363L1781.65,601.468L1700.11,534.068ZM1781.65,562.715L1781.65,443.216L1720.08,511.82L1781.65,562.715Z"/>
                </g>
                <g transform="matrix(1,0,0,1,368.061,-30.3186)">
                    <path d="M1676.26,561.505L1676.26,674.266C1676.26,682.509 1669.57,689.201 1661.33,689.201C1653.08,689.201 1646.39,682.509 1646.39,674.266L1646.39,380.511C1646.39,374.547 1649.94,369.154 1655.42,366.795C1660.9,364.435 1667.25,365.562 1671.59,369.66L1779.07,471.296C1782.38,474.424 1784.08,478.89 1783.69,483.426C1783.3,487.962 1780.86,492.072 1777.07,494.59L1676.26,561.505ZM1676.26,525.653L1744.9,480.093L1676.26,415.188L1676.26,525.653Z"/>
                </g>
                <g transform="matrix(1,0,0,1,16.9916,-5.60234)">
                    <path d="M1898.31,730.618C1899.86,734.945 1897.62,739.724 1893.29,741.281C1888.96,742.839 1884.18,740.591 1882.62,736.263L1875.51,716.512L1822.21,783.959L1849.96,825.341L1870.83,788.978L1855.78,797.005C1851.73,799.169 1846.67,797.632 1844.51,793.573C1842.35,789.515 1843.88,784.463 1847.94,782.299L1888.58,760.627C1891.85,758.879 1895.89,759.512 1898.48,762.18C1901.07,764.848 1901.57,768.906 1899.72,772.129L1857.74,845.271C1856.3,847.77 1853.68,849.35 1850.8,849.451C1847.92,849.551 1845.19,848.157 1843.59,845.764L1804.98,788.198C1802.97,785.192 1803.12,781.229 1805.37,778.39L1871.74,694.411C1873.61,692.037 1876.63,690.867 1879.62,691.354C1882.6,691.841 1885.09,693.909 1886.12,696.756L1898.31,730.618Z"/>
                </g>
                <g transform="matrix(1,0,0,1,58.9806,-25.2424)">
                    <path d="M1872.44,819.662L1857.74,845.271C1855.45,849.26 1850.35,850.639 1846.36,848.35C1842.37,846.06 1840.99,840.962 1843.28,836.974L1894.37,747.98C1896.04,745.077 1899.28,743.453 1902.6,743.857C1905.92,744.26 1908.68,746.612 1909.61,749.83L1944.9,872.75C1946.16,877.171 1943.61,881.79 1939.19,883.059C1934.77,884.329 1930.15,881.77 1928.88,877.349L1917.36,837.224L1872.44,819.662ZM1911.57,817.066L1899.02,773.355L1880.83,805.047L1911.57,817.066Z"/>
                </g>
                <g transform="matrix(1,0,0,1,77.2569,-55.7563)">
                    <path d="M1987.6,906.22C1987.24,910.805 1983.22,914.233 1978.63,913.871C1974.05,913.509 1970.62,909.492 1970.98,904.907L1978.15,814.118L1963.01,837C1961.64,839.056 1959.44,840.404 1956.99,840.68C1954.54,840.957 1952.09,840.133 1950.31,838.432L1929.29,818.406L1944.9,872.75C1946.16,877.171 1943.61,881.79 1939.19,883.059C1934.77,884.329 1930.15,881.77 1928.88,877.349L1904.8,793.482C1903.76,789.866 1905.27,786.003 1908.49,784.054C1911.71,782.106 1915.84,782.555 1918.56,785.15L1954.6,819.502L1982.05,778.043C1984.15,774.875 1988.12,773.527 1991.72,774.764C1995.31,776.002 1997.61,779.512 1997.31,783.299L1987.6,906.22Z"/>
                </g>
                <g transform="matrix(1,0,0,1,105.242,-75.8677)">
                    <path d="M1990.82,865.441L1988.76,891.586L2024.07,874.119C2028.2,872.08 2033.2,873.771 2035.24,877.894C2037.28,882.017 2035.59,887.019 2031.46,889.058L1982.99,913.033C1980.3,914.363 1977.1,914.145 1974.62,912.464C1972.14,910.783 1970.75,907.897 1970.98,904.907L1978.22,813.328C1978.5,809.699 1981.11,806.677 1984.66,805.862L2033.53,794.633C2038.01,793.603 2042.49,796.406 2043.52,800.889C2044.55,805.371 2041.75,809.846 2037.26,810.876L1994.35,820.736L1992.32,846.406L2013.88,836.493C2018.06,834.572 2023.02,836.405 2024.94,840.583C2026.86,844.762 2025.03,849.715 2020.85,851.636L1990.82,865.441Z"/>
                </g>
                <g transform="matrix(1,0,0,1,25.3135,-5.60234)">
                    <path d="M2154.74,702.777C2157.2,698.887 2162.35,697.721 2166.24,700.176C2170.13,702.63 2171.29,707.78 2168.84,711.67L2136.31,763.224L2164.16,782.832C2166.07,784.175 2167.32,786.256 2167.63,788.568C2167.93,790.881 2167.25,793.214 2165.75,795.001L2114.08,856.604C2111.13,860.128 2105.87,860.589 2102.34,857.634C2098.82,854.678 2098.36,849.417 2101.31,845.894L2147.15,791.24L2120.24,772.291C2116.61,769.736 2115.62,764.784 2117.99,761.03L2154.74,702.777Z"/>
                </g>
                <g transform="matrix(1,0,0,1,-5.91528,36.7254)">
                    <path d="M1474.24,749.899C1469.64,749.899 1465.9,746.165 1465.9,741.566C1465.9,736.967 1469.64,733.233 1474.24,733.233L1806.98,733.233C1811.57,733.233 1815.31,736.967 1815.31,741.566C1815.31,746.165 1811.57,749.899 1806.98,749.899L1474.24,749.899Z"/>
                </g>
                <g transform="matrix(1,0,0,1,-5.91528,36.7254)">
                    <path d="M2220.86,749.899C2216.26,749.899 2212.52,746.165 2212.52,741.566C2212.52,736.967 2216.26,733.233 2220.86,733.233L2553.59,733.233C2558.19,733.233 2561.93,736.967 2561.93,741.566C2561.93,746.165 2558.19,749.899 2553.59,749.899L2220.86,749.899Z"/>
                </g>
            </g>
        </g>
    </g>
</svg>
